<svg width="194" height="20" viewBox="0 0 194 20" fill="none" xmlns="http://www.w3.org/2000/svg">
<path d="M16.3541 8.53113H15.75V8.5H9V11.5H13.2386C12.6203 13.2464 10.9586 14.5 9 14.5C6.51487 14.5 4.5 12.4851 4.5 10C4.5 7.51487 6.51487 5.5 9 5.5C10.1471 5.5 11.1908 5.93275 11.9854 6.63962L14.1068 4.51825C12.7673 3.26987 10.9755 2.5 9 2.5C4.85812 2.5 1.5 5.85812 1.5 10C1.5 14.1419 4.85812 17.5 9 17.5C13.1419 17.5 16.5 14.1419 16.5 10C16.5 9.49713 16.4482 9.00625 16.3541 8.53113Z" fill="#FFC107"/>
<path d="M2.36475 6.50913L4.82887 8.31625C5.49562 6.6655 7.11037 5.5 9 5.5C10.1471 5.5 11.1907 5.93275 11.9854 6.63963L14.1067 4.51825C12.7672 3.26988 10.9755 2.5 9 2.5C6.11925 2.5 3.621 4.12638 2.36475 6.50913Z" fill="#FF3D00"/>
<path d="M8.99999 17.5C10.9372 17.5 12.6975 16.7586 14.0284 15.553L11.7071 13.5888C10.9541 14.1591 10.0181 14.5 8.99999 14.5C7.04924 14.5 5.39287 13.2561 4.76887 11.5203L2.32312 13.4046C3.56437 15.8335 6.08512 17.5 8.99999 17.5Z" fill="#4CAF50"/>
<path d="M16.3541 8.53113H15.75V8.5H9V11.5H13.2386C12.9416 12.3389 12.402 13.0622 11.706 13.5891C11.7064 13.5887 11.7067 13.5887 11.7071 13.5884L14.0284 15.5526C13.8641 15.7019 16.5 13.75 16.5 10C16.5 9.49713 16.4482 9.00625 16.3541 8.53113Z" fill="#1976D2"/>
<path d="M43.0542 16H50.6328V14.1987H45.1958V4.02197H43.0542V16ZM55.688 16.1743C58.2695 16.1743 59.9463 14.4561 59.9463 11.6006V11.584C59.9463 8.74512 58.2446 7.01855 55.6797 7.01855C53.123 7.01855 51.4297 8.76172 51.4297 11.584V11.6006C51.4297 14.4478 53.0981 16.1743 55.688 16.1743ZM55.6963 14.5059C54.3765 14.5059 53.5381 13.4517 53.5381 11.6006V11.584C53.5381 9.75781 54.3931 8.69531 55.6797 8.69531C56.9912 8.69531 57.8379 9.74951 57.8379 11.584V11.6006C57.8379 13.4434 56.9995 14.5059 55.6963 14.5059ZM65.2422 19.0796C67.7905 19.0796 69.3926 17.7432 69.3926 15.751V7.20117H67.3257V8.69531H67.2759C66.7778 7.68262 65.8149 7.01855 64.5698 7.01855C62.3452 7.01855 60.9092 8.72852 60.9092 11.5093V11.5176C60.9092 14.2568 62.3286 15.9502 64.5366 15.9502C65.7983 15.9502 66.7944 15.3525 67.2842 14.4146H67.3257V15.6846C67.3257 16.8052 66.5869 17.519 65.2422 17.519C64.1631 17.519 63.4575 17.1372 63.2334 16.6309L63.2085 16.5645H61.1748L61.1914 16.6392C61.4404 18.0171 62.9097 19.0796 65.2422 19.0796ZM65.1841 14.3564C63.856 14.3564 63.0176 13.2856 63.0176 11.5508V11.5425C63.0176 9.83252 63.856 8.76172 65.1841 8.76172C66.4624 8.76172 67.334 9.84912 67.334 11.5508V11.5591C67.334 13.269 66.4707 14.3564 65.1841 14.3564ZM74.6968 16H76.8384V4.02197H74.6968V16ZM78.7393 16H80.8062V10.895C80.8062 9.625 81.5615 8.76172 82.7485 8.76172C83.9272 8.76172 84.5083 9.46729 84.5083 10.7207V16H86.5752V10.3057C86.5752 8.26367 85.4712 7.01855 83.5371 7.01855C82.2007 7.01855 81.3042 7.63281 80.8477 8.5791H80.8062V7.20117H78.7393V16ZM93.3569 16H95.5151L97.2417 9.56689H97.2832L99.0181 16H101.193L103.575 7.20117H101.533L100.047 13.958H99.9976L98.2793 7.20117H96.2954L94.5771 13.958H94.5356L93.0498 7.20117H90.9746L93.3569 16ZM105.7 5.93945C106.348 5.93945 106.846 5.4248 106.846 4.81055C106.846 4.17969 106.348 3.67334 105.7 3.67334C105.053 3.67334 104.546 4.17969 104.546 4.81055C104.546 5.4248 105.053 5.93945 105.7 5.93945ZM104.663 16H106.729V7.20117H104.663V16ZM111.76 16.1743C112.175 16.1743 112.54 16.1328 112.781 16.0996V14.5474C112.64 14.5557 112.482 14.5806 112.283 14.5806C111.527 14.5806 111.146 14.3066 111.146 13.4434V8.79492H112.781V7.20117H111.146V4.96826H109.045V7.20117H107.8V8.79492H109.045V13.6177C109.045 15.4272 109.917 16.1743 111.76 16.1743ZM114.258 16H116.325V10.9282C116.325 9.6499 117.089 8.76172 118.259 8.76172C119.446 8.76172 120.127 9.5752 120.127 10.9282V16H122.194V10.5215C122.194 8.39648 120.982 7.01855 119.089 7.01855C117.77 7.01855 116.832 7.62451 116.375 8.67871H116.325V4.02197H114.258V16ZM132.736 16.2075C136.015 16.2075 137.957 14.2568 137.957 11.0029V9.70801H132.894V11.3765H135.865L135.857 11.5591C135.815 13.2358 134.57 14.3481 132.761 14.3481C130.603 14.3481 129.25 12.6963 129.25 9.94873V9.94043C129.25 7.25098 130.544 5.67383 132.703 5.67383C134.172 5.67383 135.209 6.4209 135.666 7.70752L135.691 7.79883H137.866L137.833 7.66602C137.376 5.45801 135.533 3.81445 132.694 3.81445C129.241 3.81445 127.066 6.15527 127.066 9.95703V9.96533C127.066 13.8335 129.241 16.2075 132.736 16.2075ZM143.394 16.1743C145.976 16.1743 147.652 14.4561 147.652 11.6006V11.584C147.652 8.74512 145.951 7.01855 143.386 7.01855C140.829 7.01855 139.136 8.76172 139.136 11.584V11.6006C139.136 14.4478 140.804 16.1743 143.394 16.1743ZM143.402 14.5059C142.083 14.5059 141.244 13.4517 141.244 11.6006V11.584C141.244 9.75781 142.099 8.69531 143.386 8.69531C144.697 8.69531 145.544 9.74951 145.544 11.584V11.6006C145.544 13.4434 144.706 14.5059 143.402 14.5059ZM152.874 16.1743C155.455 16.1743 157.132 14.4561 157.132 11.6006V11.584C157.132 8.74512 155.43 7.01855 152.865 7.01855C150.309 7.01855 148.615 8.76172 148.615 11.584V11.6006C148.615 14.4478 150.284 16.1743 152.874 16.1743ZM152.882 14.5059C151.562 14.5059 150.724 13.4517 150.724 11.6006V11.584C150.724 9.75781 151.579 8.69531 152.865 8.69531C154.177 8.69531 155.023 9.74951 155.023 11.584V11.6006C155.023 13.4434 154.185 14.5059 152.882 14.5059ZM162.428 19.0796C164.976 19.0796 166.578 17.7432 166.578 15.751V7.20117H164.511V8.69531H164.461C163.963 7.68262 163 7.01855 161.755 7.01855C159.531 7.01855 158.095 8.72852 158.095 11.5093V11.5176C158.095 14.2568 159.514 15.9502 161.722 15.9502C162.984 15.9502 163.98 15.3525 164.47 14.4146H164.511V15.6846C164.511 16.8052 163.772 17.519 162.428 17.519C161.349 17.519 160.643 17.1372 160.419 16.6309L160.394 16.5645H158.36L158.377 16.6392C158.626 18.0171 160.095 19.0796 162.428 19.0796ZM162.37 14.3564C161.042 14.3564 160.203 13.2856 160.203 11.5508V11.5425C160.203 9.83252 161.042 8.76172 162.37 8.76172C163.648 8.76172 164.52 9.84912 164.52 11.5508V11.5591C164.52 13.269 163.656 14.3564 162.37 14.3564ZM168.33 16H170.396V4.02197H168.33V16ZM176.024 16.1743C178.324 16.1743 179.619 14.813 179.893 13.46L179.917 13.3687H177.983L177.967 13.4268C177.768 14.0161 177.095 14.564 176.066 14.564C174.721 14.564 173.875 13.6509 173.841 12.1069H180V11.4429C180 8.78662 178.44 7.01855 175.925 7.01855C173.41 7.01855 171.791 8.84473 171.791 11.6172V11.6255C171.791 14.4229 173.385 16.1743 176.024 16.1743ZM175.95 8.63721C177.045 8.63721 177.842 9.33447 177.992 10.729H173.866C174.032 9.37598 174.854 8.63721 175.95 8.63721Z" fill="white"/>
</svg>
